<svg xmlns="http://www.w3.org/2000/svg" version="1.1" xmlns:xlink="http://www.w3.org/1999/xlink" xmlns:svgjs="http://svgjs.com/svgjs" width="1440" height="560" preserveAspectRatio="none" viewBox="0 0 1440 560"><g mask="url(&quot;#SvgjsMask1045&quot;)" fill="none"><rect width="1440" height="560" x="0" y="0" fill="rgba(1, 17, 69, 1)"></rect><path d="M7.15 437.26L72.1 474.76L72.1 549.76L7.15 587.26L-57.8 549.76L-57.8 474.76zM137.06 -12.74L202.01 24.76L202.01 99.76L137.06 137.26L72.1 99.76L72.1 24.76zM137.06 212.26L202.01 249.76L202.01 324.76L137.06 362.26L72.1 324.76L72.1 249.76zM137.06 437.26L202.01 474.76L202.01 549.76L137.06 587.26L72.1 549.76L72.1 474.76zM461.83 99.76L526.78 137.26L526.78 212.26L461.83 249.76L396.87 212.26L396.87 137.26zM396.87 212.26L461.83 249.76L461.83 324.76L396.87 362.26L331.92 324.76L331.92 249.76zM396.87 437.26L461.83 474.76L461.83 549.76L396.87 587.26L331.92 549.76L331.92 474.76zM461.83 549.76L526.78 587.26L526.78 662.26L461.83 699.76L396.87 662.26L396.87 587.26zM656.69 -12.74L721.64 24.76L721.64 99.76L656.69 137.26L591.73 99.76L591.73 24.76zM721.64 324.76L786.6 362.26L786.6 437.26L721.64 474.76L656.69 437.26L656.69 362.26zM656.69 437.26L721.64 474.76L721.64 549.76L656.69 587.26L591.73 549.76L591.73 474.76zM851.55 99.76L916.5 137.26L916.5 212.26L851.55 249.76L786.59 212.26L786.59 137.26zM916.5 212.26L981.46 249.76L981.46 324.76L916.5 362.26L851.55 324.76L851.55 249.76zM1111.36 99.76L1176.32 137.26L1176.32 212.26L1111.36 249.76L1046.41 212.26L1046.41 137.26zM1111.36 324.76L1176.32 362.26L1176.32 437.26L1111.36 474.76L1046.41 437.26L1046.41 362.26zM1046.41 437.26L1111.36 474.76L1111.36 549.76L1046.41 587.26L981.46 549.76L981.46 474.76zM1241.27 99.76L1306.22 137.26L1306.22 212.26L1241.27 249.76L1176.32 212.26L1176.32 137.26zM1241.27 324.76L1306.22 362.26L1306.22 437.26L1241.27 474.76L1176.32 437.26L1176.32 362.26zM1501.09 549.76L1566.04 587.26L1566.04 662.26L1501.09 699.76L1436.13 662.26L1436.13 587.26z" stroke="rgba(255, 255, 255, 0.02)" stroke-width="2"></path><path d="M-0.35 437.26 a7.5 7.5 0 1 0 15 0 a7.5 7.5 0 1 0 -15 0zM64.6 474.76 a7.5 7.5 0 1 0 15 0 a7.5 7.5 0 1 0 -15 0zM64.6 549.76 a7.5 7.5 0 1 0 15 0 a7.5 7.5 0 1 0 -15 0zM-0.35 587.26 a7.5 7.5 0 1 0 15 0 a7.5 7.5 0 1 0 -15 0zM-65.3 549.76 a7.5 7.5 0 1 0 15 0 a7.5 7.5 0 1 0 -15 0zM-65.3 474.76 a7.5 7.5 0 1 0 15 0 a7.5 7.5 0 1 0 -15 0zM129.56 -12.74 a7.5 7.5 0 1 0 15 0 a7.5 7.5 0 1 0 -15 0zM194.51 24.76 a7.5 7.5 0 1 0 15 0 a7.5 7.5 0 1 0 -15 0zM194.51 99.76 a7.5 7.5 0 1 0 15 0 a7.5 7.5 0 1 0 -15 0zM129.56 137.26 a7.5 7.5 0 1 0 15 0 a7.5 7.5 0 1 0 -15 0zM64.6 99.76 a7.5 7.5 0 1 0 15 0 a7.5 7.5 0 1 0 -15 0zM64.6 24.76 a7.5 7.5 0 1 0 15 0 a7.5 7.5 0 1 0 -15 0zM129.56 212.26 a7.5 7.5 0 1 0 15 0 a7.5 7.5 0 1 0 -15 0zM194.51 249.76 a7.5 7.5 0 1 0 15 0 a7.5 7.5 0 1 0 -15 0zM194.51 324.76 a7.5 7.5 0 1 0 15 0 a7.5 7.5 0 1 0 -15 0zM129.56 362.26 a7.5 7.5 0 1 0 15 0 a7.5 7.5 0 1 0 -15 0zM64.6 324.76 a7.5 7.5 0 1 0 15 0 a7.5 7.5 0 1 0 -15 0zM64.6 249.76 a7.5 7.5 0 1 0 15 0 a7.5 7.5 0 1 0 -15 0zM129.56 437.26 a7.5 7.5 0 1 0 15 0 a7.5 7.5 0 1 0 -15 0zM194.51 474.76 a7.5 7.5 0 1 0 15 0 a7.5 7.5 0 1 0 -15 0zM194.51 549.76 a7.5 7.5 0 1 0 15 0 a7.5 7.5 0 1 0 -15 0zM129.56 587.26 a7.5 7.5 0 1 0 15 0 a7.5 7.5 0 1 0 -15 0zM454.33 99.76 a7.5 7.5 0 1 0 15 0 a7.5 7.5 0 1 0 -15 0zM519.28 137.26 a7.5 7.5 0 1 0 15 0 a7.5 7.5 0 1 0 -15 0zM519.28 212.26 a7.5 7.5 0 1 0 15 0 a7.5 7.5 0 1 0 -15 0zM454.33 249.76 a7.5 7.5 0 1 0 15 0 a7.5 7.5 0 1 0 -15 0zM389.37 212.26 a7.5 7.5 0 1 0 15 0 a7.5 7.5 0 1 0 -15 0zM389.37 137.26 a7.5 7.5 0 1 0 15 0 a7.5 7.5 0 1 0 -15 0zM454.33 324.76 a7.5 7.5 0 1 0 15 0 a7.5 7.5 0 1 0 -15 0zM389.37 362.26 a7.5 7.5 0 1 0 15 0 a7.5 7.5 0 1 0 -15 0zM324.42 324.76 a7.5 7.5 0 1 0 15 0 a7.5 7.5 0 1 0 -15 0zM324.42 249.76 a7.5 7.5 0 1 0 15 0 a7.5 7.5 0 1 0 -15 0zM389.37 437.26 a7.5 7.5 0 1 0 15 0 a7.5 7.5 0 1 0 -15 0zM454.33 474.76 a7.5 7.5 0 1 0 15 0 a7.5 7.5 0 1 0 -15 0zM454.33 549.76 a7.5 7.5 0 1 0 15 0 a7.5 7.5 0 1 0 -15 0zM389.37 587.26 a7.5 7.5 0 1 0 15 0 a7.5 7.5 0 1 0 -15 0zM324.42 549.76 a7.5 7.5 0 1 0 15 0 a7.5 7.5 0 1 0 -15 0zM324.42 474.76 a7.5 7.5 0 1 0 15 0 a7.5 7.5 0 1 0 -15 0zM519.28 587.26 a7.5 7.5 0 1 0 15 0 a7.5 7.5 0 1 0 -15 0zM519.28 662.26 a7.5 7.5 0 1 0 15 0 a7.5 7.5 0 1 0 -15 0zM454.33 699.76 a7.5 7.5 0 1 0 15 0 a7.5 7.5 0 1 0 -15 0zM389.37 662.26 a7.5 7.5 0 1 0 15 0 a7.5 7.5 0 1 0 -15 0zM649.19 -12.74 a7.5 7.5 0 1 0 15 0 a7.5 7.5 0 1 0 -15 0zM714.14 24.76 a7.5 7.5 0 1 0 15 0 a7.5 7.5 0 1 0 -15 0zM714.14 99.76 a7.5 7.5 0 1 0 15 0 a7.5 7.5 0 1 0 -15 0zM649.19 137.26 a7.5 7.5 0 1 0 15 0 a7.5 7.5 0 1 0 -15 0zM584.23 99.76 a7.5 7.5 0 1 0 15 0 a7.5 7.5 0 1 0 -15 0zM584.23 24.76 a7.5 7.5 0 1 0 15 0 a7.5 7.5 0 1 0 -15 0zM714.14 324.76 a7.5 7.5 0 1 0 15 0 a7.5 7.5 0 1 0 -15 0zM779.1 362.26 a7.5 7.5 0 1 0 15 0 a7.5 7.5 0 1 0 -15 0zM779.1 437.26 a7.5 7.5 0 1 0 15 0 a7.5 7.5 0 1 0 -15 0zM714.14 474.76 a7.5 7.5 0 1 0 15 0 a7.5 7.5 0 1 0 -15 0zM649.19 437.26 a7.5 7.5 0 1 0 15 0 a7.5 7.5 0 1 0 -15 0zM649.19 362.26 a7.5 7.5 0 1 0 15 0 a7.5 7.5 0 1 0 -15 0zM714.14 549.76 a7.5 7.5 0 1 0 15 0 a7.5 7.5 0 1 0 -15 0zM649.19 587.26 a7.5 7.5 0 1 0 15 0 a7.5 7.5 0 1 0 -15 0zM584.23 549.76 a7.5 7.5 0 1 0 15 0 a7.5 7.5 0 1 0 -15 0zM584.23 474.76 a7.5 7.5 0 1 0 15 0 a7.5 7.5 0 1 0 -15 0zM844.05 99.76 a7.5 7.5 0 1 0 15 0 a7.5 7.5 0 1 0 -15 0zM909 137.26 a7.5 7.5 0 1 0 15 0 a7.5 7.5 0 1 0 -15 0zM909 212.26 a7.5 7.5 0 1 0 15 0 a7.5 7.5 0 1 0 -15 0zM844.05 249.76 a7.5 7.5 0 1 0 15 0 a7.5 7.5 0 1 0 -15 0zM779.09 212.26 a7.5 7.5 0 1 0 15 0 a7.5 7.5 0 1 0 -15 0zM779.09 137.26 a7.5 7.5 0 1 0 15 0 a7.5 7.5 0 1 0 -15 0zM973.96 249.76 a7.5 7.5 0 1 0 15 0 a7.5 7.5 0 1 0 -15 0zM973.96 324.76 a7.5 7.5 0 1 0 15 0 a7.5 7.5 0 1 0 -15 0zM909 362.26 a7.5 7.5 0 1 0 15 0 a7.5 7.5 0 1 0 -15 0zM844.05 324.76 a7.5 7.5 0 1 0 15 0 a7.5 7.5 0 1 0 -15 0zM1103.86 99.76 a7.5 7.5 0 1 0 15 0 a7.5 7.5 0 1 0 -15 0zM1168.82 137.26 a7.5 7.5 0 1 0 15 0 a7.5 7.5 0 1 0 -15 0zM1168.82 212.26 a7.5 7.5 0 1 0 15 0 a7.5 7.5 0 1 0 -15 0zM1103.86 249.76 a7.5 7.5 0 1 0 15 0 a7.5 7.5 0 1 0 -15 0zM1038.91 212.26 a7.5 7.5 0 1 0 15 0 a7.5 7.5 0 1 0 -15 0zM1038.91 137.26 a7.5 7.5 0 1 0 15 0 a7.5 7.5 0 1 0 -15 0zM1103.86 324.76 a7.5 7.5 0 1 0 15 0 a7.5 7.5 0 1 0 -15 0zM1168.82 362.26 a7.5 7.5 0 1 0 15 0 a7.5 7.5 0 1 0 -15 0zM1168.82 437.26 a7.5 7.5 0 1 0 15 0 a7.5 7.5 0 1 0 -15 0zM1103.86 474.76 a7.5 7.5 0 1 0 15 0 a7.5 7.5 0 1 0 -15 0zM1038.91 437.26 a7.5 7.5 0 1 0 15 0 a7.5 7.5 0 1 0 -15 0zM1038.91 362.26 a7.5 7.5 0 1 0 15 0 a7.5 7.5 0 1 0 -15 0zM1103.86 549.76 a7.5 7.5 0 1 0 15 0 a7.5 7.5 0 1 0 -15 0zM1038.91 587.26 a7.5 7.5 0 1 0 15 0 a7.5 7.5 0 1 0 -15 0zM973.96 549.76 a7.5 7.5 0 1 0 15 0 a7.5 7.5 0 1 0 -15 0zM973.96 474.76 a7.5 7.5 0 1 0 15 0 a7.5 7.5 0 1 0 -15 0zM1233.77 99.76 a7.5 7.5 0 1 0 15 0 a7.5 7.5 0 1 0 -15 0zM1298.72 137.26 a7.5 7.5 0 1 0 15 0 a7.5 7.5 0 1 0 -15 0zM1298.72 212.26 a7.5 7.5 0 1 0 15 0 a7.5 7.5 0 1 0 -15 0zM1233.77 249.76 a7.5 7.5 0 1 0 15 0 a7.5 7.5 0 1 0 -15 0zM1233.77 324.76 a7.5 7.5 0 1 0 15 0 a7.5 7.5 0 1 0 -15 0zM1298.72 362.26 a7.5 7.5 0 1 0 15 0 a7.5 7.5 0 1 0 -15 0zM1298.72 437.26 a7.5 7.5 0 1 0 15 0 a7.5 7.5 0 1 0 -15 0zM1233.77 474.76 a7.5 7.5 0 1 0 15 0 a7.5 7.5 0 1 0 -15 0zM1493.59 549.76 a7.5 7.5 0 1 0 15 0 a7.5 7.5 0 1 0 -15 0zM1558.54 587.26 a7.5 7.5 0 1 0 15 0 a7.5 7.5 0 1 0 -15 0zM1558.54 662.26 a7.5 7.5 0 1 0 15 0 a7.5 7.5 0 1 0 -15 0zM1493.59 699.76 a7.5 7.5 0 1 0 15 0 a7.5 7.5 0 1 0 -15 0zM1428.63 662.26 a7.5 7.5 0 1 0 15 0 a7.5 7.5 0 1 0 -15 0zM1428.63 587.26 a7.5 7.5 0 1 0 15 0 a7.5 7.5 0 1 0 -15 0z" fill="rgba(255, 255, 255, 0.02)"></path><path d="M189.71 75.56L280.64 128.06L280.64 233.06L189.71 285.56L98.77 233.06L98.77 128.06zM189.71 390.56L280.64 443.06L280.64 548.06L189.71 600.56L98.77 548.06L98.77 443.06zM371.58 75.56L462.51 128.06L462.51 233.06L371.58 285.56L280.64 233.06L280.64 128.06zM462.51 233.06L553.45 285.56L553.45 390.56L462.51 443.06L371.58 390.56L371.58 285.56zM553.45 390.56L644.38 443.06L644.38 548.06L553.45 600.56L462.51 548.06L462.51 443.06zM462.51 548.06L553.45 600.56L553.45 705.56L462.51 758.06L371.58 705.56L371.58 600.56zM644.38 -81.94L735.32 -29.44L735.32 75.56L644.38 128.06L553.45 75.56L553.45 -29.44zM917.19 75.56L1008.12 128.06L1008.12 233.06L917.19 285.56L826.25 233.06L826.25 128.06zM917.19 390.56L1008.12 443.06L1008.12 548.06L917.19 600.56L826.25 548.06L826.25 443.06zM1099.06 390.56L1189.99 443.06L1189.99 548.06L1099.06 600.56L1008.12 548.06L1008.12 443.06zM1280.93 75.56L1371.86 128.06L1371.86 233.06L1280.93 285.56L1189.99 233.06L1189.99 128.06zM1371.86 548.06L1462.8 600.56L1462.8 705.56L1371.86 758.06L1280.93 705.56L1280.93 600.56z" stroke="rgba(255, 255, 255, 0.03)" stroke-width="2"></path><path d="M179.21 75.56 a10.5 10.5 0 1 0 21 0 a10.5 10.5 0 1 0 -21 0zM270.14 128.06 a10.5 10.5 0 1 0 21 0 a10.5 10.5 0 1 0 -21 0zM270.14 233.06 a10.5 10.5 0 1 0 21 0 a10.5 10.5 0 1 0 -21 0zM179.21 285.56 a10.5 10.5 0 1 0 21 0 a10.5 10.5 0 1 0 -21 0zM88.27 233.06 a10.5 10.5 0 1 0 21 0 a10.5 10.5 0 1 0 -21 0zM88.27 128.06 a10.5 10.5 0 1 0 21 0 a10.5 10.5 0 1 0 -21 0zM179.21 390.56 a10.5 10.5 0 1 0 21 0 a10.5 10.5 0 1 0 -21 0zM270.14 443.06 a10.5 10.5 0 1 0 21 0 a10.5 10.5 0 1 0 -21 0zM270.14 548.06 a10.5 10.5 0 1 0 21 0 a10.5 10.5 0 1 0 -21 0zM179.21 600.56 a10.5 10.5 0 1 0 21 0 a10.5 10.5 0 1 0 -21 0zM88.27 548.06 a10.5 10.5 0 1 0 21 0 a10.5 10.5 0 1 0 -21 0zM88.27 443.06 a10.5 10.5 0 1 0 21 0 a10.5 10.5 0 1 0 -21 0zM361.08 75.56 a10.5 10.5 0 1 0 21 0 a10.5 10.5 0 1 0 -21 0zM452.01 128.06 a10.5 10.5 0 1 0 21 0 a10.5 10.5 0 1 0 -21 0zM452.01 233.06 a10.5 10.5 0 1 0 21 0 a10.5 10.5 0 1 0 -21 0zM361.08 285.56 a10.5 10.5 0 1 0 21 0 a10.5 10.5 0 1 0 -21 0zM542.95 285.56 a10.5 10.5 0 1 0 21 0 a10.5 10.5 0 1 0 -21 0zM542.95 390.56 a10.5 10.5 0 1 0 21 0 a10.5 10.5 0 1 0 -21 0zM452.01 443.06 a10.5 10.5 0 1 0 21 0 a10.5 10.5 0 1 0 -21 0zM361.08 390.56 a10.5 10.5 0 1 0 21 0 a10.5 10.5 0 1 0 -21 0zM633.88 443.06 a10.5 10.5 0 1 0 21 0 a10.5 10.5 0 1 0 -21 0zM633.88 548.06 a10.5 10.5 0 1 0 21 0 a10.5 10.5 0 1 0 -21 0zM542.95 600.56 a10.5 10.5 0 1 0 21 0 a10.5 10.5 0 1 0 -21 0zM452.01 548.06 a10.5 10.5 0 1 0 21 0 a10.5 10.5 0 1 0 -21 0zM542.95 705.56 a10.5 10.5 0 1 0 21 0 a10.5 10.5 0 1 0 -21 0zM452.01 758.06 a10.5 10.5 0 1 0 21 0 a10.5 10.5 0 1 0 -21 0zM361.08 705.56 a10.5 10.5 0 1 0 21 0 a10.5 10.5 0 1 0 -21 0zM361.08 600.56 a10.5 10.5 0 1 0 21 0 a10.5 10.5 0 1 0 -21 0zM633.88 -81.94 a10.5 10.5 0 1 0 21 0 a10.5 10.5 0 1 0 -21 0zM724.82 -29.44 a10.5 10.5 0 1 0 21 0 a10.5 10.5 0 1 0 -21 0zM724.82 75.56 a10.5 10.5 0 1 0 21 0 a10.5 10.5 0 1 0 -21 0zM633.88 128.06 a10.5 10.5 0 1 0 21 0 a10.5 10.5 0 1 0 -21 0zM542.95 75.56 a10.5 10.5 0 1 0 21 0 a10.5 10.5 0 1 0 -21 0zM542.95 -29.44 a10.5 10.5 0 1 0 21 0 a10.5 10.5 0 1 0 -21 0zM906.69 75.56 a10.5 10.5 0 1 0 21 0 a10.5 10.5 0 1 0 -21 0zM997.62 128.06 a10.5 10.5 0 1 0 21 0 a10.5 10.5 0 1 0 -21 0zM997.62 233.06 a10.5 10.5 0 1 0 21 0 a10.5 10.5 0 1 0 -21 0zM906.69 285.56 a10.5 10.5 0 1 0 21 0 a10.5 10.5 0 1 0 -21 0zM815.75 233.06 a10.5 10.5 0 1 0 21 0 a10.5 10.5 0 1 0 -21 0zM815.75 128.06 a10.5 10.5 0 1 0 21 0 a10.5 10.5 0 1 0 -21 0zM906.69 390.56 a10.5 10.5 0 1 0 21 0 a10.5 10.5 0 1 0 -21 0zM997.62 443.06 a10.5 10.5 0 1 0 21 0 a10.5 10.5 0 1 0 -21 0zM997.62 548.06 a10.5 10.5 0 1 0 21 0 a10.5 10.5 0 1 0 -21 0zM906.69 600.56 a10.5 10.5 0 1 0 21 0 a10.5 10.5 0 1 0 -21 0zM815.75 548.06 a10.5 10.5 0 1 0 21 0 a10.5 10.5 0 1 0 -21 0zM815.75 443.06 a10.5 10.5 0 1 0 21 0 a10.5 10.5 0 1 0 -21 0zM1088.56 390.56 a10.5 10.5 0 1 0 21 0 a10.5 10.5 0 1 0 -21 0zM1179.49 443.06 a10.5 10.5 0 1 0 21 0 a10.5 10.5 0 1 0 -21 0zM1179.49 548.06 a10.5 10.5 0 1 0 21 0 a10.5 10.5 0 1 0 -21 0zM1088.56 600.56 a10.5 10.5 0 1 0 21 0 a10.5 10.5 0 1 0 -21 0zM1270.43 75.56 a10.5 10.5 0 1 0 21 0 a10.5 10.5 0 1 0 -21 0zM1361.36 128.06 a10.5 10.5 0 1 0 21 0 a10.5 10.5 0 1 0 -21 0zM1361.36 233.06 a10.5 10.5 0 1 0 21 0 a10.5 10.5 0 1 0 -21 0zM1270.43 285.56 a10.5 10.5 0 1 0 21 0 a10.5 10.5 0 1 0 -21 0zM1179.49 233.06 a10.5 10.5 0 1 0 21 0 a10.5 10.5 0 1 0 -21 0zM1179.49 128.06 a10.5 10.5 0 1 0 21 0 a10.5 10.5 0 1 0 -21 0zM1361.36 548.06 a10.5 10.5 0 1 0 21 0 a10.5 10.5 0 1 0 -21 0zM1452.3 600.56 a10.5 10.5 0 1 0 21 0 a10.5 10.5 0 1 0 -21 0zM1452.3 705.56 a10.5 10.5 0 1 0 21 0 a10.5 10.5 0 1 0 -21 0zM1361.36 758.06 a10.5 10.5 0 1 0 21 0 a10.5 10.5 0 1 0 -21 0zM1270.43 705.56 a10.5 10.5 0 1 0 21 0 a10.5 10.5 0 1 0 -21 0zM1270.43 600.56 a10.5 10.5 0 1 0 21 0 a10.5 10.5 0 1 0 -21 0z" fill="rgba(255, 255, 255, 0.03)"></path></g><defs><mask id="SvgjsMask1045"><rect width="1440" height="560" fill="#ffffff"></rect></mask></defs></svg>