<svg xmlns="http://www.w3.org/2000/svg" version="1.1" xmlns:xlink="http://www.w3.org/1999/xlink" xmlns:svgjs="http://svgjs.com/svgjs" width="1440" height="1000" preserveAspectRatio="none" viewBox="0 0 1440 1000"><g mask="url(&quot;#SvgjsMask1350&quot;)" fill="none"><path d="M 0,87 C 96,108.6 288,193 480,195 C 672,197 768,100.2 960,97 C 1152,93.8 1344,162.6 1440,179L1440 1000L0 1000z" fill="rgba(1, 17, 69, 1)"></path><path d="M 0,495 C 96,464.8 288,354.8 480,344 C 672,333.2 768,449.6 960,441 C 1152,432.4 1344,329 1440,301L1440 1000L0 1000z" fill="rgba(1, 17, 69, 1)"></path><path d="M 0,642 C 96,638 288,623.6 480,622 C 672,620.4 768,633.6 960,634 C 1152,634.4 1344,626 1440,624L1440 1000L0 1000z" fill="rgba(1, 17, 69, 1)"></path><path d="M 0,789 C 96,813.4 288,895.6 480,911 C 672,926.4 768,864.6 960,866 C 1152,867.4 1344,907.6 1440,918L1440 1000L0 1000z" fill="rgba(255, 255, 255, 1)"></path></g><defs><mask id="SvgjsMask1350"><rect width="1440" height="1000" fill="#ffffff"></rect></mask></defs></svg>